<svg xmlns="http://www.w3.org/2000/svg" xmlns:xlink="http://www.w3.org/1999/xlink" width="1920" zoomAndPan="magnify" viewBox="0 0 1440 809.999993" height="1080" preserveAspectRatio="xMidYMid meet" version="1.0"><defs><clipPath id="b2c978cbcd"><path d="M 278.714844 1 L 1186.214844 1 L 1186.214844 605 L 278.714844 605 Z M 278.714844 1 " clip-rule="nonzero"/></clipPath></defs><path fill="#23aac9" d="M 1110.550781 580.121094 C 1110.550781 506.84375 1050.9375 447.226562 977.660156 447.226562 C 904.382812 447.226562 844.765625 506.84375 844.765625 580.121094 C 844.765625 653.398438 904.382812 713.015625 977.660156 713.015625 C 1050.9375 713.015625 1110.550781 653.398438 1110.550781 580.121094 Z M 977.652344 694.109375 C 914.800781 694.109375 863.671875 642.980469 863.671875 580.121094 C 863.671875 517.269531 914.800781 466.140625 977.652344 466.140625 C 1040.503906 466.140625 1091.632812 517.269531 1091.632812 580.121094 C 1091.640625 642.972656 1040.511719 694.109375 977.652344 694.109375 Z M 977.652344 694.109375 " fill-opacity="1" fill-rule="nonzero"/><path fill="#23aac9" d="M 977.652344 481.015625 C 923.003906 481.015625 878.546875 525.472656 878.546875 580.121094 C 878.546875 634.769531 923.011719 679.234375 977.652344 679.234375 C 1032.292969 679.234375 1076.757812 634.769531 1076.757812 580.121094 C 1076.757812 525.472656 1032.300781 481.015625 977.652344 481.015625 Z M 1029.527344 633.90625 L 977.660156 606.871094 L 925.792969 633.90625 L 944.289062 588.316406 L 910.910156 551.933594 L 958.261719 551.933594 L 977.667969 513.886719 L 997.070312 551.933594 L 1044.421875 551.933594 L 1011.042969 588.316406 Z M 1029.527344 633.90625 " fill-opacity="1" fill-rule="nonzero"/><path fill="#23aac9" d="M 868.132812 678.96875 C 845.589844 711.480469 827.097656 747.773438 813.097656 787.257812 C 829.050781 779.277344 852.613281 769.960938 869.210938 774.082031 C 884.390625 777.835938 897.429688 794.554688 906.1875 809.101562 C 911 778.339844 921.257812 749.171875 936.695312 721.992188 C 909.929688 714.25 886.339844 699.121094 868.132812 678.96875 Z M 868.132812 678.96875 " fill-opacity="1" fill-rule="nonzero"/><path fill="#23aac9" d="M 977.652344 432.355469 C 1049.546875 432.355469 1109.535156 483.980469 1122.675781 552.097656 L 1133.832031 552.097656 L 1133.832031 53.226562 L 330.921875 53.226562 L 330.921875 552.097656 L 832.628906 552.097656 C 845.769531 483.980469 905.757812 432.355469 977.652344 432.355469 Z M 499.5 93.847656 L 961.566406 93.847656 L 961.566406 161.160156 L 499.5 161.160156 Z M 429.382812 247.675781 L 1052.015625 247.675781 C 1056.128906 247.675781 1059.453125 251.007812 1059.453125 255.113281 C 1059.453125 259.21875 1056.128906 262.550781 1052.015625 262.550781 L 429.382812 262.550781 C 425.269531 262.550781 421.945312 259.21875 421.945312 255.113281 C 421.945312 251.007812 425.269531 247.675781 429.382812 247.675781 Z M 653.484375 329.433594 C 653.484375 333.535156 650.160156 336.867188 646.046875 336.867188 L 484.074219 336.867188 C 479.960938 336.867188 476.636719 333.535156 476.636719 329.433594 C 476.636719 325.328125 479.960938 321.996094 484.074219 321.996094 L 646.039062 321.996094 C 650.152344 321.996094 653.484375 325.328125 653.484375 329.433594 Z M 704.6875 464.25 C 703.214844 468.089844 698.925781 469.984375 695.074219 468.511719 C 679.210938 462.382812 656.496094 463.597656 631.121094 471.917969 C 625.976562 473.59375 620.390625 472.296875 616.542969 468.511719 C 612.78125 464.800781 611.429688 459.351562 612.996094 454.292969 C 614.839844 448.425781 615.777344 441.589844 612.886719 440 C 609.375 439.195312 590.765625 444.730469 546.160156 471.210938 C 541.019531 474.269531 534.707031 473.523438 530.40625 469.414062 C 526.117188 465.308594 525.113281 459.03125 527.910156 453.792969 C 540.144531 430.867188 537.296875 425.289062 537.265625 425.242188 C 519.253906 419.523438 465.414062 467.210938 432.894531 502.902344 C 431.429688 504.515625 429.414062 505.332031 427.398438 505.332031 C 425.613281 505.332031 423.820312 504.695312 422.382812 503.394531 C 419.351562 500.625 419.128906 495.925781 421.902344 492.882812 C 436.046875 477.355469 508.328125 400.425781 541.628906 411.054688 C 546.101562 412.480469 549.371094 415.492188 551.097656 419.746094 C 553.128906 424.753906 554.429688 433.804688 543.847656 455.3125 C 605.851562 419.09375 615.421875 424.402344 620.09375 426.984375 C 625.4375 429.945312 633.410156 437.847656 627.492188 457.757812 C 655.410156 448.386719 681.476562 447.332031 700.425781 454.636719 C 704.265625 456.113281 706.175781 460.421875 704.6875 464.25 Z M 759.226562 336.867188 C 755.113281 336.867188 751.789062 333.535156 751.789062 329.433594 C 751.789062 325.328125 755.113281 321.996094 759.226562 321.996094 L 1015.550781 321.996094 C 1019.664062 321.996094 1022.988281 325.328125 1022.988281 329.433594 C 1022.988281 333.535156 1019.664062 336.867188 1015.550781 336.867188 Z M 759.226562 336.867188 " fill-opacity="1" fill-rule="nonzero"/><g clip-path="url(#b2c978cbcd)"><path fill="#23aac9" d="M 1149.828125 1.167969 L 314.925781 1.167969 C 294.964844 1.167969 278.714844 17.417969 278.714844 37.386719 L 278.714844 567.945312 C 278.714844 587.914062 294.964844 604.15625 314.925781 604.15625 L 832.019531 604.15625 C 830.726562 596.320312 829.882812 588.324219 829.882812 580.121094 C 829.882812 575.679688 830.167969 571.308594 830.554688 566.972656 L 323.484375 566.972656 C 319.375 566.972656 316.050781 563.640625 316.050781 559.535156 L 316.050781 45.789062 C 316.050781 41.683594 319.375 38.351562 323.484375 38.351562 L 1141.269531 38.351562 C 1145.378906 38.351562 1148.703125 41.683594 1148.703125 45.789062 L 1148.703125 559.535156 C 1148.703125 563.640625 1145.378906 566.972656 1141.269531 566.972656 L 1124.757812 566.972656 C 1125.144531 571.316406 1125.425781 575.679688 1125.425781 580.121094 C 1125.425781 588.324219 1124.585938 596.3125 1123.292969 604.15625 L 1149.828125 604.15625 C 1169.796875 604.15625 1186.039062 587.914062 1186.039062 567.945312 L 1186.039062 37.386719 C 1186.039062 17.417969 1169.789062 1.167969 1149.828125 1.167969 Z M 1149.828125 1.167969 " fill-opacity="1" fill-rule="nonzero"/></g><path fill="#23aac9" d="M 1018.617188 721.992188 C 1034.054688 749.164062 1044.304688 778.335938 1049.121094 809.101562 C 1057.882812 794.554688 1070.914062 777.828125 1086.097656 774.082031 C 1102.738281 769.96875 1126.265625 779.277344 1142.210938 787.257812 C 1128.207031 747.761719 1109.71875 711.476562 1087.179688 678.96875 C 1068.972656 699.121094 1045.382812 714.25 1018.617188 721.992188 Z M 1018.617188 721.992188 " fill-opacity="1" fill-rule="nonzero"/></svg>