<svg xmlns="http://www.w3.org/2000/svg" xmlns:xlink="http://www.w3.org/1999/xlink" zoomAndPan="magnify" preserveAspectRatio="xMidYMid meet" version="1.0" viewBox="12.75 152.54 333.98 48.79"><defs><g/></defs><path fill="#23aac9" d="M 43.742188 196.367188 C 43.21875 195.542969 42.320312 195.078125 41.371094 195.078125 C 41.179688 195.078125 40.984375 195.09375 40.792969 195.132812 C 39.609375 195.371094 38.386719 195.496094 37.136719 195.496094 C 36.710938 195.496094 36.277344 195.480469 35.84375 195.449219 C 26.734375 194.828125 19.347656 187.53125 18.632812 178.425781 C 17.769531 167.515625 26.40625 158.363281 37.140625 158.363281 C 38.40625 158.363281 39.644531 158.488281 40.84375 158.734375 C 41.03125 158.773438 41.21875 158.789062 41.40625 158.789062 C 42.382812 158.789062 43.3125 158.28125 43.847656 157.433594 C 44.933594 155.71875 43.984375 153.429688 42 153.023438 C 40.425781 152.703125 38.804688 152.535156 37.140625 152.535156 C 36.789062 152.535156 36.4375 152.542969 36.082031 152.558594 C 23.550781 153.09375 13.367188 163.222656 12.773438 175.75 C 12.109375 189.734375 23.296875 201.324219 37.140625 201.324219 C 38.835938 201.324219 40.492188 201.148438 42.09375 200.816406 C 44 200.417969 44.925781 198.246094 43.890625 196.605469 Z M 42.9375 198.679688 C 42.738281 199.148438 42.335938 199.476562 41.835938 199.582031 C 40.296875 199.902344 38.71875 200.0625 37.136719 200.0625 C 33.925781 200.0625 30.8125 199.414062 27.886719 198.132812 C 25.058594 196.894531 22.542969 195.128906 20.402344 192.882812 C 15.988281 188.257812 13.726562 182.195312 14.03125 175.808594 C 14.300781 170.066406 16.71875 164.644531 20.839844 160.550781 C 24.957031 156.453125 30.390625 154.0625 36.136719 153.816406 C 36.46875 153.800781 36.808594 153.792969 37.140625 153.792969 C 38.6875 153.792969 40.238281 153.949219 41.746094 154.257812 C 42.273438 154.363281 42.695312 154.714844 42.910156 155.210938 C 43.128906 155.726562 43.082031 156.289062 42.785156 156.757812 C 42.480469 157.234375 41.953125 157.53125 41.40625 157.53125 C 41.300781 157.53125 41.195312 157.519531 41.09375 157.5 C 39.796875 157.234375 38.46875 157.101562 37.140625 157.101562 C 31.632812 157.101562 26.328125 159.425781 22.582031 163.480469 C 18.785156 167.589844 16.9375 172.933594 17.375 178.527344 C 18.140625 188.230469 26.042969 196.046875 35.757812 196.710938 C 36.21875 196.738281 36.683594 196.757812 37.140625 196.757812 C 38.449219 196.757812 39.765625 196.625 41.042969 196.371094 C 41.152344 196.347656 41.261719 196.335938 41.371094 196.335938 C 41.910156 196.335938 42.398438 196.597656 42.675781 197.039062 L 42.824219 197.273438 C 43.09375 197.703125 43.136719 198.214844 42.9375 198.679688 Z M 42.9375 198.679688 " fill-opacity="1" fill-rule="nonzero"/><path fill="#23aac9" d="M 46.722656 192.816406 L 39.167969 180.839844 C 38.746094 180.167969 37.867188 179.945312 37.171875 180.332031 C 36.425781 180.75 36.179688 181.710938 36.636719 182.4375 L 46.273438 197.722656 L 46.28125 197.71875 L 46.382812 197.878906 C 46.851562 198.625 47.820312 198.871094 48.597656 198.453125 C 55.871094 194.566406 60.957031 187.101562 61.484375 178.425781 L 55.113281 181.570312 C 53.886719 186.320312 50.820312 190.335938 46.722656 192.816406 Z M 46.722656 192.816406 " fill-opacity="1" fill-rule="nonzero"/><path fill="#23aac9" d="M 27.664062 179.925781 L 34.972656 179.925781 L 37.578125 178.46875 L 37.644531 178.429688 L 55.304688 178.429688 L 55.304688 180.019531 L 61.550781 176.933594 L 55.304688 173.847656 L 55.304688 175.4375 L 37.652344 175.4375 L 37.652344 175.433594 L 37.578125 175.390625 L 34.976562 173.9375 L 27.664062 173.9375 C 27.664062 175.574219 28.972656 176.898438 30.601562 176.933594 C 28.972656 176.964844 27.664062 178.289062 27.664062 179.925781 Z M 27.664062 179.925781 " fill-opacity="1" fill-rule="nonzero"/><path fill="#23aac9" d="M 37.183594 173.535156 C 37.878906 173.921875 38.753906 173.703125 39.179688 173.03125 L 46.769531 161.070312 C 50.847656 163.554688 53.898438 167.5625 55.117188 172.300781 L 61.484375 175.445312 C 60.960938 166.789062 55.90625 159.335938 48.660156 155.4375 C 47.882812 155.019531 46.917969 155.261719 46.445312 156.003906 L 46.234375 156.339844 C 46.222656 156.355469 46.210938 156.367188 46.203125 156.378906 L 36.652344 171.425781 C 36.191406 172.152344 36.433594 173.117188 37.183594 173.535156 Z M 37.183594 173.535156 " fill-opacity="1" fill-rule="nonzero"/><g fill="#ffffff" fill-opacity="1"><g transform="translate(71.296736, 188.967643)"><g><path d="M 2.53125 0 L 2.53125 -22.984375 L 10.71875 -22.984375 C 12.5 -22.984375 13.976562 -22.675781 15.15625 -22.0625 C 16.332031 -21.445312 17.210938 -20.597656 17.796875 -19.515625 C 18.378906 -18.441406 18.671875 -17.195312 18.671875 -15.78125 C 18.671875 -14.375 18.378906 -13.132812 17.796875 -12.0625 C 17.210938 -11 16.328125 -10.171875 15.140625 -9.578125 C 13.960938 -8.992188 12.484375 -8.703125 10.703125 -8.703125 L 4.5 -8.703125 L 4.5 -11.6875 L 10.390625 -11.6875 C 11.515625 -11.6875 12.429688 -11.847656 13.140625 -12.171875 C 13.847656 -12.492188 14.363281 -12.957031 14.6875 -13.5625 C 15.019531 -14.175781 15.1875 -14.914062 15.1875 -15.78125 C 15.1875 -16.644531 15.019531 -17.394531 14.6875 -18.03125 C 14.351562 -18.675781 13.832031 -19.164062 13.125 -19.5 C 12.414062 -19.84375 11.488281 -20.015625 10.34375 -20.015625 L 6 -20.015625 L 6 0 Z M 13.875 -10.375 L 19.546875 0 L 15.609375 0 L 10.03125 -10.375 Z M 13.875 -10.375 "/></g></g></g><g fill="#ffffff" fill-opacity="1"><g transform="translate(91.014956, 188.967643)"><g><path d="M 9.6875 0.34375 C 7.988281 0.34375 6.523438 -0.0195312 5.296875 -0.75 C 4.078125 -1.476562 3.132812 -2.503906 2.46875 -3.828125 C 1.8125 -5.160156 1.484375 -6.722656 1.484375 -8.515625 C 1.484375 -10.273438 1.8125 -11.828125 2.46875 -13.171875 C 3.132812 -14.523438 4.0625 -15.578125 5.25 -16.328125 C 6.445312 -17.085938 7.847656 -17.46875 9.453125 -17.46875 C 10.421875 -17.46875 11.363281 -17.304688 12.28125 -16.984375 C 13.195312 -16.660156 14.015625 -16.15625 14.734375 -15.46875 C 15.460938 -14.78125 16.035156 -13.882812 16.453125 -12.78125 C 16.867188 -11.6875 17.078125 -10.359375 17.078125 -8.796875 L 17.078125 -7.609375 L 3.375 -7.609375 L 3.375 -10.125 L 13.796875 -10.125 C 13.796875 -11.007812 13.613281 -11.789062 13.25 -12.46875 C 12.894531 -13.15625 12.394531 -13.695312 11.75 -14.09375 C 11.101562 -14.488281 10.34375 -14.6875 9.46875 -14.6875 C 8.53125 -14.6875 7.707031 -14.457031 7 -14 C 6.300781 -13.539062 5.765625 -12.941406 5.390625 -12.203125 C 5.015625 -11.460938 4.828125 -10.664062 4.828125 -9.8125 L 4.828125 -7.84375 C 4.828125 -6.695312 5.03125 -5.71875 5.4375 -4.90625 C 5.84375 -4.09375 6.410156 -3.472656 7.140625 -3.046875 C 7.878906 -2.628906 8.738281 -2.421875 9.71875 -2.421875 C 10.351562 -2.421875 10.929688 -2.507812 11.453125 -2.6875 C 11.984375 -2.875 12.4375 -3.148438 12.8125 -3.515625 C 13.195312 -3.890625 13.488281 -4.347656 13.6875 -4.890625 L 16.875 -4.3125 C 16.613281 -3.375 16.15625 -2.554688 15.5 -1.859375 C 14.851562 -1.160156 14.035156 -0.617188 13.046875 -0.234375 C 12.066406 0.148438 10.945312 0.34375 9.6875 0.34375 Z M 9.6875 0.34375 "/></g></g></g><g fill="#ffffff" fill-opacity="1"><g transform="translate(108.914951, 188.967643)"><g><path d="M 15.171875 -13.03125 L 12.140625 -12.5 C 12.003906 -12.882812 11.800781 -13.25 11.53125 -13.59375 C 11.257812 -13.945312 10.890625 -14.238281 10.421875 -14.46875 C 9.960938 -14.695312 9.382812 -14.8125 8.6875 -14.8125 C 7.738281 -14.8125 6.945312 -14.597656 6.3125 -14.171875 C 5.675781 -13.742188 5.359375 -13.195312 5.359375 -12.53125 C 5.359375 -11.957031 5.570312 -11.492188 6 -11.140625 C 6.425781 -10.796875 7.113281 -10.507812 8.0625 -10.28125 L 10.796875 -9.65625 C 12.378906 -9.289062 13.5625 -8.722656 14.34375 -7.953125 C 15.125 -7.191406 15.515625 -6.203125 15.515625 -4.984375 C 15.515625 -3.953125 15.21875 -3.03125 14.625 -2.21875 C 14.03125 -1.414062 13.203125 -0.785156 12.140625 -0.328125 C 11.078125 0.117188 9.851562 0.34375 8.46875 0.34375 C 6.53125 0.34375 4.953125 -0.0664062 3.734375 -0.890625 C 2.515625 -1.710938 1.769531 -2.890625 1.5 -4.421875 L 4.734375 -4.921875 C 4.941406 -4.066406 5.359375 -3.425781 5.984375 -3 C 6.609375 -2.570312 7.425781 -2.359375 8.4375 -2.359375 C 9.539062 -2.359375 10.421875 -2.585938 11.078125 -3.046875 C 11.734375 -3.503906 12.0625 -4.066406 12.0625 -4.734375 C 12.0625 -5.273438 11.859375 -5.726562 11.453125 -6.09375 C 11.054688 -6.457031 10.445312 -6.734375 9.625 -6.921875 L 6.71875 -7.5625 C 5.101562 -7.925781 3.910156 -8.507812 3.140625 -9.3125 C 2.378906 -10.113281 2 -11.128906 2 -12.359375 C 2 -13.378906 2.28125 -14.269531 2.84375 -15.03125 C 3.414062 -15.789062 4.203125 -16.382812 5.203125 -16.8125 C 6.210938 -17.25 7.363281 -17.46875 8.65625 -17.46875 C 10.519531 -17.46875 11.984375 -17.0625 13.046875 -16.25 C 14.117188 -15.445312 14.828125 -14.375 15.171875 -13.03125 Z M 15.171875 -13.03125 "/></g></g></g><g fill="#ffffff" fill-opacity="1"><g transform="translate(125.187515, 188.967643)"><g><path d="M 9.6875 0.34375 C 7.988281 0.34375 6.523438 -0.0195312 5.296875 -0.75 C 4.078125 -1.476562 3.132812 -2.503906 2.46875 -3.828125 C 1.8125 -5.160156 1.484375 -6.722656 1.484375 -8.515625 C 1.484375 -10.273438 1.8125 -11.828125 2.46875 -13.171875 C 3.132812 -14.523438 4.0625 -15.578125 5.25 -16.328125 C 6.445312 -17.085938 7.847656 -17.46875 9.453125 -17.46875 C 10.421875 -17.46875 11.363281 -17.304688 12.28125 -16.984375 C 13.195312 -16.660156 14.015625 -16.15625 14.734375 -15.46875 C 15.460938 -14.78125 16.035156 -13.882812 16.453125 -12.78125 C 16.867188 -11.6875 17.078125 -10.359375 17.078125 -8.796875 L 17.078125 -7.609375 L 3.375 -7.609375 L 3.375 -10.125 L 13.796875 -10.125 C 13.796875 -11.007812 13.613281 -11.789062 13.25 -12.46875 C 12.894531 -13.15625 12.394531 -13.695312 11.75 -14.09375 C 11.101562 -14.488281 10.34375 -14.6875 9.46875 -14.6875 C 8.53125 -14.6875 7.707031 -14.457031 7 -14 C 6.300781 -13.539062 5.765625 -12.941406 5.390625 -12.203125 C 5.015625 -11.460938 4.828125 -10.664062 4.828125 -9.8125 L 4.828125 -7.84375 C 4.828125 -6.695312 5.03125 -5.71875 5.4375 -4.90625 C 5.84375 -4.09375 6.410156 -3.472656 7.140625 -3.046875 C 7.878906 -2.628906 8.738281 -2.421875 9.71875 -2.421875 C 10.351562 -2.421875 10.929688 -2.507812 11.453125 -2.6875 C 11.984375 -2.875 12.4375 -3.148438 12.8125 -3.515625 C 13.195312 -3.890625 13.488281 -4.347656 13.6875 -4.890625 L 16.875 -4.3125 C 16.613281 -3.375 16.15625 -2.554688 15.5 -1.859375 C 14.851562 -1.160156 14.035156 -0.617188 13.046875 -0.234375 C 12.066406 0.148438 10.945312 0.34375 9.6875 0.34375 Z M 9.6875 0.34375 "/></g></g></g><g fill="#ffffff" fill-opacity="1"><g transform="translate(143.08751, 188.967643)"><g><path d="M 9.515625 0.34375 C 7.847656 0.34375 6.410156 -0.0351562 5.203125 -0.796875 C 4.003906 -1.554688 3.082031 -2.601562 2.4375 -3.9375 C 1.800781 -5.28125 1.484375 -6.816406 1.484375 -8.546875 C 1.484375 -10.296875 1.8125 -11.84375 2.46875 -13.1875 C 3.125 -14.53125 4.050781 -15.578125 5.25 -16.328125 C 6.445312 -17.085938 7.859375 -17.46875 9.484375 -17.46875 C 10.796875 -17.46875 11.960938 -17.222656 12.984375 -16.734375 C 14.015625 -16.253906 14.84375 -15.578125 15.46875 -14.703125 C 16.101562 -13.835938 16.484375 -12.828125 16.609375 -11.671875 L 13.328125 -11.671875 C 13.148438 -12.484375 12.738281 -13.179688 12.09375 -13.765625 C 11.457031 -14.347656 10.609375 -14.640625 9.546875 -14.640625 C 8.609375 -14.640625 7.785156 -14.394531 7.078125 -13.90625 C 6.378906 -13.414062 5.835938 -12.71875 5.453125 -11.8125 C 5.066406 -10.914062 4.875 -9.851562 4.875 -8.625 C 4.875 -7.363281 5.0625 -6.273438 5.4375 -5.359375 C 5.820312 -4.453125 6.363281 -3.742188 7.0625 -3.234375 C 7.757812 -2.734375 8.585938 -2.484375 9.546875 -2.484375 C 10.179688 -2.484375 10.757812 -2.601562 11.28125 -2.84375 C 11.800781 -3.082031 12.238281 -3.421875 12.59375 -3.859375 C 12.945312 -4.304688 13.191406 -4.835938 13.328125 -5.453125 L 16.609375 -5.453125 C 16.484375 -4.335938 16.117188 -3.34375 15.515625 -2.46875 C 14.910156 -1.59375 14.097656 -0.90625 13.078125 -0.40625 C 12.066406 0.09375 10.878906 0.34375 9.515625 0.34375 Z M 9.515625 0.34375 "/></g></g></g><g fill="#ffffff" fill-opacity="1"><g transform="translate(160.370199, 188.967643)"><g><path d="M 10.296875 -17.234375 L 10.296875 -14.546875 L 0.890625 -14.546875 L 0.890625 -17.234375 Z M 3.40625 -21.375 L 6.765625 -21.375 L 6.765625 -5.0625 C 6.765625 -4.40625 6.863281 -3.914062 7.0625 -3.59375 C 7.257812 -3.269531 7.507812 -3.050781 7.8125 -2.9375 C 8.125 -2.820312 8.460938 -2.765625 8.828125 -2.765625 C 9.097656 -2.765625 9.332031 -2.78125 9.53125 -2.8125 C 9.738281 -2.851562 9.898438 -2.882812 10.015625 -2.90625 L 10.625 -0.140625 C 10.425781 -0.0546875 10.144531 0.0195312 9.78125 0.09375 C 9.425781 0.175781 8.976562 0.21875 8.4375 0.21875 C 7.550781 0.238281 6.726562 0.0859375 5.96875 -0.234375 C 5.207031 -0.566406 4.585938 -1.078125 4.109375 -1.765625 C 3.640625 -2.460938 3.40625 -3.328125 3.40625 -4.359375 Z M 3.40625 -21.375 "/></g></g></g><g fill="#ffffff" fill-opacity="1"><g transform="translate(171.457458, 188.967643)"><g><path d="M 7.28125 0.375 C 6.1875 0.375 5.195312 0.171875 4.3125 -0.234375 C 3.425781 -0.640625 2.726562 -1.226562 2.21875 -2 C 1.707031 -2.78125 1.453125 -3.738281 1.453125 -4.875 C 1.453125 -5.84375 1.640625 -6.640625 2.015625 -7.265625 C 2.390625 -7.898438 2.894531 -8.398438 3.53125 -8.765625 C 4.164062 -9.128906 4.875 -9.40625 5.65625 -9.59375 C 6.445312 -9.78125 7.25 -9.925781 8.0625 -10.03125 C 9.09375 -10.144531 9.929688 -10.238281 10.578125 -10.3125 C 11.222656 -10.394531 11.691406 -10.523438 11.984375 -10.703125 C 12.273438 -10.890625 12.421875 -11.179688 12.421875 -11.578125 L 12.421875 -11.65625 C 12.421875 -12.644531 12.144531 -13.40625 11.59375 -13.9375 C 11.039062 -14.476562 10.222656 -14.75 9.140625 -14.75 C 8.003906 -14.75 7.113281 -14.5 6.46875 -14 C 5.820312 -13.5 5.375 -12.945312 5.125 -12.34375 L 1.96875 -13.0625 C 2.34375 -14.113281 2.890625 -14.960938 3.609375 -15.609375 C 4.335938 -16.253906 5.171875 -16.722656 6.109375 -17.015625 C 7.054688 -17.316406 8.050781 -17.46875 9.09375 -17.46875 C 9.78125 -17.46875 10.507812 -17.382812 11.28125 -17.21875 C 12.0625 -17.0625 12.789062 -16.769531 13.46875 -16.34375 C 14.144531 -15.914062 14.695312 -15.304688 15.125 -14.515625 C 15.5625 -13.722656 15.78125 -12.703125 15.78125 -11.453125 L 15.78125 0 L 12.5 0 L 12.5 -2.359375 L 12.375 -2.359375 C 12.15625 -1.921875 11.828125 -1.492188 11.390625 -1.078125 C 10.960938 -0.660156 10.40625 -0.3125 9.71875 -0.03125 C 9.039062 0.238281 8.226562 0.375 7.28125 0.375 Z M 8 -2.3125 C 8.925781 -2.3125 9.71875 -2.492188 10.375 -2.859375 C 11.039062 -3.222656 11.546875 -3.703125 11.890625 -4.296875 C 12.242188 -4.898438 12.421875 -5.539062 12.421875 -6.21875 L 12.421875 -8.4375 C 12.304688 -8.320312 12.078125 -8.210938 11.734375 -8.109375 C 11.390625 -8.003906 11 -7.914062 10.5625 -7.84375 C 10.132812 -7.78125 9.710938 -7.71875 9.296875 -7.65625 C 8.890625 -7.601562 8.546875 -7.554688 8.265625 -7.515625 C 7.617188 -7.429688 7.023438 -7.289062 6.484375 -7.09375 C 5.953125 -6.90625 5.523438 -6.628906 5.203125 -6.265625 C 4.890625 -5.898438 4.734375 -5.421875 4.734375 -4.828125 C 4.734375 -3.992188 5.039062 -3.363281 5.65625 -2.9375 C 6.269531 -2.519531 7.050781 -2.3125 8 -2.3125 Z M 8 -2.3125 "/></g></g></g><g fill="#ffffff" fill-opacity="1"><g transform="translate(188.785048, 188.967643)"><g><path d="M 13.171875 -7.15625 L 13.171875 -17.234375 L 16.546875 -17.234375 L 16.546875 0 L 13.25 0 L 13.25 -2.984375 L 13.0625 -2.984375 C 12.664062 -2.066406 12.03125 -1.300781 11.15625 -0.6875 C 10.289062 -0.0820312 9.207031 0.21875 7.90625 0.21875 C 6.800781 0.21875 5.820312 -0.0234375 4.96875 -0.515625 C 4.125 -1.003906 3.457031 -1.726562 2.96875 -2.6875 C 2.488281 -3.65625 2.25 -4.851562 2.25 -6.28125 L 2.25 -17.234375 L 5.609375 -17.234375 L 5.609375 -6.671875 C 5.609375 -5.503906 5.929688 -4.570312 6.578125 -3.875 C 7.234375 -3.175781 8.082031 -2.828125 9.125 -2.828125 C 9.75 -2.828125 10.375 -2.984375 11 -3.296875 C 11.625 -3.609375 12.144531 -4.082031 12.5625 -4.71875 C 12.976562 -5.363281 13.179688 -6.175781 13.171875 -7.15625 Z M 13.171875 -7.15625 "/></g></g></g><g fill="#ffffff" fill-opacity="1"><g transform="translate(206.909513, 188.967643)"><g><path d="M 2.25 0 L 2.25 -17.234375 L 5.5 -17.234375 L 5.5 -14.5 L 5.6875 -14.5 C 6 -15.425781 6.550781 -16.15625 7.34375 -16.6875 C 8.144531 -17.226562 9.050781 -17.5 10.0625 -17.5 C 10.269531 -17.5 10.515625 -17.488281 10.796875 -17.46875 C 11.085938 -17.457031 11.316406 -17.441406 11.484375 -17.421875 L 11.484375 -14.203125 C 11.347656 -14.242188 11.109375 -14.285156 10.765625 -14.328125 C 10.421875 -14.378906 10.078125 -14.40625 9.734375 -14.40625 C 8.941406 -14.40625 8.234375 -14.238281 7.609375 -13.90625 C 6.992188 -13.570312 6.503906 -13.113281 6.140625 -12.53125 C 5.785156 -11.945312 5.609375 -11.28125 5.609375 -10.53125 L 5.609375 0 Z M 2.25 0 "/></g></g></g><g fill="#ffffff" fill-opacity="1"><g transform="translate(218.389607, 188.967643)"><g/></g></g><g fill="#ffffff" fill-opacity="1"><g transform="translate(226.101414, 188.967643)"><g><path d="M 3.046875 0 L 3.046875 -22.984375 L 5.15625 -22.984375 L 5.15625 -1.890625 L 16.109375 -1.890625 L 16.109375 0 Z M 3.046875 0 "/></g></g></g><g fill="#ffffff" fill-opacity="1"><g transform="translate(243.215749, 188.967643)"><g><path d="M 9.609375 0.359375 C 7.992188 0.359375 6.597656 -0.015625 5.421875 -0.765625 C 4.253906 -1.515625 3.347656 -2.554688 2.703125 -3.890625 C 2.066406 -5.234375 1.75 -6.773438 1.75 -8.515625 C 1.75 -10.253906 2.066406 -11.796875 2.703125 -13.140625 C 3.347656 -14.492188 4.238281 -15.554688 5.375 -16.328125 C 6.507812 -17.097656 7.820312 -17.484375 9.3125 -17.484375 C 10.238281 -17.484375 11.132812 -17.3125 12 -16.96875 C 12.875 -16.625 13.65625 -16.101562 14.34375 -15.40625 C 15.039062 -14.707031 15.59375 -13.828125 16 -12.765625 C 16.40625 -11.710938 16.609375 -10.460938 16.609375 -9.015625 L 16.609375 -8.03125 L 3.125 -8.03125 L 3.125 -9.78125 L 14.5625 -9.78125 C 14.5625 -10.894531 14.335938 -11.894531 13.890625 -12.78125 C 13.441406 -13.664062 12.820312 -14.363281 12.03125 -14.875 C 11.25 -15.394531 10.34375 -15.65625 9.3125 -15.65625 C 8.21875 -15.65625 7.253906 -15.363281 6.421875 -14.78125 C 5.585938 -14.195312 4.9375 -13.425781 4.46875 -12.46875 C 4 -11.507812 3.765625 -10.460938 3.765625 -9.328125 L 3.765625 -8.265625 C 3.765625 -6.898438 4 -5.707031 4.46875 -4.6875 C 4.945312 -3.664062 5.625 -2.875 6.5 -2.3125 C 7.375 -1.75 8.410156 -1.46875 9.609375 -1.46875 C 10.421875 -1.46875 11.132812 -1.59375 11.75 -1.84375 C 12.375 -2.101562 12.894531 -2.445312 13.3125 -2.875 C 13.738281 -3.3125 14.0625 -3.785156 14.28125 -4.296875 L 16.171875 -3.6875 C 15.910156 -2.957031 15.484375 -2.285156 14.890625 -1.671875 C 14.296875 -1.054688 13.554688 -0.5625 12.671875 -0.1875 C 11.785156 0.175781 10.765625 0.359375 9.609375 0.359375 Z M 9.609375 0.359375 "/></g></g></g><g fill="#ffffff" fill-opacity="1"><g transform="translate(260.902494, 188.967643)"><g><path d="M 7.453125 0.390625 C 6.410156 0.390625 5.457031 0.1875 4.59375 -0.21875 C 3.738281 -0.625 3.054688 -1.210938 2.546875 -1.984375 C 2.035156 -2.765625 1.78125 -3.707031 1.78125 -4.8125 C 1.78125 -5.664062 1.941406 -6.382812 2.265625 -6.96875 C 2.585938 -7.550781 3.046875 -8.03125 3.640625 -8.40625 C 4.234375 -8.78125 4.929688 -9.078125 5.734375 -9.296875 C 6.546875 -9.515625 7.4375 -9.679688 8.40625 -9.796875 C 9.375 -9.921875 10.191406 -10.023438 10.859375 -10.109375 C 11.523438 -10.203125 12.035156 -10.34375 12.390625 -10.53125 C 12.742188 -10.726562 12.921875 -11.046875 12.921875 -11.484375 L 12.921875 -11.890625 C 12.921875 -13.066406 12.570312 -13.992188 11.875 -14.671875 C 11.175781 -15.347656 10.171875 -15.6875 8.859375 -15.6875 C 7.617188 -15.6875 6.601562 -15.410156 5.8125 -14.859375 C 5.03125 -14.316406 4.484375 -13.675781 4.171875 -12.9375 L 2.28125 -13.609375 C 2.664062 -14.554688 3.203125 -15.3125 3.890625 -15.875 C 4.578125 -16.4375 5.347656 -16.84375 6.203125 -17.09375 C 7.054688 -17.351562 7.921875 -17.484375 8.796875 -17.484375 C 9.453125 -17.484375 10.140625 -17.394531 10.859375 -17.21875 C 11.578125 -17.050781 12.238281 -16.753906 12.84375 -16.328125 C 13.457031 -15.898438 13.957031 -15.3125 14.34375 -14.5625 C 14.726562 -13.8125 14.921875 -12.859375 14.921875 -11.703125 L 14.921875 0 L 12.921875 0 L 12.921875 -2.734375 L 12.796875 -2.734375 C 12.554688 -2.222656 12.195312 -1.726562 11.71875 -1.25 C 11.25 -0.769531 10.660156 -0.375 9.953125 -0.0625 C 9.242188 0.238281 8.410156 0.390625 7.453125 0.390625 Z M 7.71875 -1.4375 C 8.78125 -1.4375 9.703125 -1.671875 10.484375 -2.140625 C 11.265625 -2.609375 11.863281 -3.234375 12.28125 -4.015625 C 12.707031 -4.804688 12.921875 -5.671875 12.921875 -6.609375 L 12.921875 -9.109375 C 12.773438 -8.960938 12.523438 -8.832031 12.171875 -8.71875 C 11.828125 -8.601562 11.425781 -8.503906 10.96875 -8.421875 C 10.519531 -8.335938 10.070312 -8.265625 9.625 -8.203125 C 9.175781 -8.140625 8.769531 -8.085938 8.40625 -8.046875 C 7.4375 -7.929688 6.609375 -7.742188 5.921875 -7.484375 C 5.234375 -7.234375 4.703125 -6.882812 4.328125 -6.4375 C 3.960938 -5.988281 3.78125 -5.414062 3.78125 -4.71875 C 3.78125 -3.675781 4.15625 -2.867188 4.90625 -2.296875 C 5.65625 -1.722656 6.59375 -1.4375 7.71875 -1.4375 Z M 7.71875 -1.4375 "/></g></g></g><g fill="#ffffff" fill-opacity="1"><g transform="translate(277.826033, 188.967643)"><g><path d="M 2.640625 0 L 2.640625 -17.234375 L 4.578125 -17.234375 L 4.578125 -14.59375 L 4.71875 -14.59375 C 5.0625 -15.457031 5.660156 -16.15625 6.515625 -16.6875 C 7.378906 -17.226562 8.351562 -17.5 9.4375 -17.5 C 9.601562 -17.5 9.785156 -17.492188 9.984375 -17.484375 C 10.191406 -17.484375 10.363281 -17.476562 10.5 -17.46875 L 10.5 -15.4375 C 10.40625 -15.445312 10.242188 -15.46875 10.015625 -15.5 C 9.796875 -15.53125 9.554688 -15.546875 9.296875 -15.546875 C 8.398438 -15.546875 7.597656 -15.351562 6.890625 -14.96875 C 6.191406 -14.59375 5.640625 -14.070312 5.234375 -13.40625 C 4.835938 -12.75 4.640625 -11.992188 4.640625 -11.140625 L 4.640625 0 Z M 2.640625 0 "/></g></g></g><g fill="#ffffff" fill-opacity="1"><g transform="translate(288.430671, 188.967643)"><g><path d="M 4.640625 -10.78125 L 4.640625 0 L 2.640625 0 L 2.640625 -17.234375 L 4.578125 -17.234375 L 4.578125 -14.53125 L 4.765625 -14.53125 C 5.160156 -15.414062 5.785156 -16.125 6.640625 -16.65625 C 7.503906 -17.195312 8.566406 -17.46875 9.828125 -17.46875 C 10.992188 -17.46875 12.015625 -17.222656 12.890625 -16.734375 C 13.765625 -16.253906 14.445312 -15.546875 14.9375 -14.609375 C 15.4375 -13.679688 15.6875 -12.535156 15.6875 -11.171875 L 15.6875 0 L 13.6875 0 L 13.6875 -11.046875 C 13.6875 -12.460938 13.289062 -13.582031 12.5 -14.40625 C 11.707031 -15.226562 10.648438 -15.640625 9.328125 -15.640625 C 8.421875 -15.640625 7.613281 -15.441406 6.90625 -15.046875 C 6.207031 -14.660156 5.65625 -14.101562 5.25 -13.375 C 4.84375 -12.644531 4.640625 -11.78125 4.640625 -10.78125 Z M 4.640625 -10.78125 "/></g></g></g><g fill="#ffffff" fill-opacity="1"><g transform="translate(306.083748, 188.967643)"><g><path d="M 2.65625 0 L 2.65625 -17.234375 L 4.671875 -17.234375 L 4.671875 0 Z M 3.6875 -20.203125 C 3.269531 -20.203125 2.914062 -20.34375 2.625 -20.625 C 2.332031 -20.90625 2.1875 -21.242188 2.1875 -21.640625 C 2.1875 -22.035156 2.332031 -22.375 2.625 -22.65625 C 2.914062 -22.9375 3.269531 -23.078125 3.6875 -23.078125 C 4.09375 -23.078125 4.441406 -22.9375 4.734375 -22.65625 C 5.023438 -22.375 5.171875 -22.035156 5.171875 -21.640625 C 5.171875 -21.242188 5.023438 -20.90625 4.734375 -20.625 C 4.441406 -20.34375 4.09375 -20.203125 3.6875 -20.203125 Z M 3.6875 -20.203125 "/></g></g></g><g fill="#ffffff" fill-opacity="1"><g transform="translate(312.748907, 188.967643)"><g><path d="M 4.640625 -10.78125 L 4.640625 0 L 2.640625 0 L 2.640625 -17.234375 L 4.578125 -17.234375 L 4.578125 -14.53125 L 4.765625 -14.53125 C 5.160156 -15.414062 5.785156 -16.125 6.640625 -16.65625 C 7.503906 -17.195312 8.566406 -17.46875 9.828125 -17.46875 C 10.992188 -17.46875 12.015625 -17.222656 12.890625 -16.734375 C 13.765625 -16.253906 14.445312 -15.546875 14.9375 -14.609375 C 15.4375 -13.679688 15.6875 -12.535156 15.6875 -11.171875 L 15.6875 0 L 13.6875 0 L 13.6875 -11.046875 C 13.6875 -12.460938 13.289062 -13.582031 12.5 -14.40625 C 11.707031 -15.226562 10.648438 -15.640625 9.328125 -15.640625 C 8.421875 -15.640625 7.613281 -15.441406 6.90625 -15.046875 C 6.207031 -14.660156 5.65625 -14.101562 5.25 -13.375 C 4.84375 -12.644531 4.640625 -11.78125 4.640625 -10.78125 Z M 4.640625 -10.78125 "/></g></g></g><g fill="#ffffff" fill-opacity="1"><g transform="translate(330.401989, 188.967643)"><g><path d="M 9.21875 6.828125 C 8.039062 6.828125 7.007812 6.675781 6.125 6.375 C 5.238281 6.070312 4.492188 5.65625 3.890625 5.125 C 3.285156 4.601562 2.816406 4.019531 2.484375 3.375 L 4.125 2.296875 C 4.363281 2.722656 4.691406 3.144531 5.109375 3.5625 C 5.523438 3.988281 6.066406 4.335938 6.734375 4.609375 C 7.410156 4.890625 8.238281 5.03125 9.21875 5.03125 C 10.738281 5.03125 11.96875 4.644531 12.90625 3.875 C 13.851562 3.113281 14.328125 1.929688 14.328125 0.328125 L 14.328125 -3.5625 L 14.140625 -3.5625 C 13.910156 -3.03125 13.578125 -2.503906 13.140625 -1.984375 C 12.710938 -1.472656 12.144531 -1.039062 11.4375 -0.6875 C 10.738281 -0.34375 9.875 -0.171875 8.84375 -0.171875 C 7.46875 -0.171875 6.242188 -0.507812 5.171875 -1.1875 C 4.109375 -1.875 3.269531 -2.851562 2.65625 -4.125 C 2.050781 -5.394531 1.75 -6.910156 1.75 -8.671875 C 1.75 -10.410156 2.046875 -11.941406 2.640625 -13.265625 C 3.234375 -14.585938 4.066406 -15.617188 5.140625 -16.359375 C 6.210938 -17.109375 7.457031 -17.484375 8.875 -17.484375 C 9.9375 -17.484375 10.8125 -17.296875 11.5 -16.921875 C 12.195312 -16.546875 12.753906 -16.085938 13.171875 -15.546875 C 13.597656 -15.003906 13.929688 -14.472656 14.171875 -13.953125 L 14.375 -13.953125 L 14.375 -17.234375 L 16.328125 -17.234375 L 16.328125 0.453125 C 16.328125 1.910156 16.015625 3.109375 15.390625 4.046875 C 14.773438 4.992188 13.929688 5.691406 12.859375 6.140625 C 11.796875 6.597656 10.582031 6.828125 9.21875 6.828125 Z M 9.078125 -2.015625 C 10.191406 -2.015625 11.140625 -2.28125 11.921875 -2.8125 C 12.703125 -3.34375 13.300781 -4.109375 13.71875 -5.109375 C 14.144531 -6.117188 14.359375 -7.316406 14.359375 -8.703125 C 14.359375 -10.046875 14.148438 -11.238281 13.734375 -12.28125 C 13.328125 -13.332031 12.734375 -14.15625 11.953125 -14.75 C 11.171875 -15.351562 10.210938 -15.65625 9.078125 -15.65625 C 7.929688 -15.65625 6.957031 -15.34375 6.15625 -14.71875 C 5.363281 -14.101562 4.765625 -13.269531 4.359375 -12.21875 C 3.960938 -11.164062 3.765625 -9.992188 3.765625 -8.703125 C 3.765625 -7.378906 3.96875 -6.210938 4.375 -5.203125 C 4.789062 -4.203125 5.394531 -3.421875 6.1875 -2.859375 C 6.976562 -2.296875 7.941406 -2.015625 9.078125 -2.015625 Z M 9.078125 -2.015625 "/></g></g></g></svg>