<?xml version="1.0" encoding="utf-8"?>
<!-- Generator: Adobe Illustrator 26.3.1, SVG Export Plug-In . SVG Version: 6.00 Build 0)  -->
<svg version="1.1" xmlns="http://www.w3.org/2000/svg" xmlns:xlink="http://www.w3.org/1999/xlink" x="0px" y="0px"
	 viewBox="0 0 1080 1080" style="enable-background:new 0 0 1080 1080;" xml:space="preserve">
<style type="text/css">
	.st0{fill:#FFFFFF;}
	.st1{fill:#23AAC9;}
	.st2{fill:#272727;}
</style>
<g id="Layer_1">
	<g>
		<path class="st1" d="M597.73,709.3c-4.54-7.2-12.4-11.26-20.69-11.26c-1.67,0-3.35,0.16-5.03,0.5
			c-10.32,2.07-20.99,3.15-31.9,3.15c-3.74,0-7.5-0.13-11.29-0.39c-79.52-5.42-143.96-69.12-150.22-148.58
			c-7.51-95.22,67.85-175.1,161.52-175.1c11.07,0,21.88,1.12,32.33,3.25c1.63,0.33,3.28,0.49,4.9,0.49
			c8.53,0,16.63-4.45,21.32-11.84v0c9.48-14.95,1.2-34.95-16.14-38.49c-13.71-2.8-27.89-4.27-42.41-4.27c-3.06,0-6.14,0.07-9.23,0.2
			c-109.36,4.7-198.25,93.07-203.43,202.4c-5.78,122.06,91.85,223.2,212.66,223.2c14.82,0,29.28-1.54,43.24-4.44
			c16.62-3.46,24.73-22.4,15.67-36.75L597.73,709.3z M590.72,729.48c-1.74,4.09-5.24,6.96-9.61,7.87c-13.43,2.8-27.22,4.21-41,4.21
			c-28.05,0-55.22-5.67-80.75-16.85c-24.66-10.8-46.64-26.22-65.32-45.81c-38.5-40.36-58.24-93.29-55.6-149.02
			c2.37-50.12,23.48-97.41,59.42-133.17c35.93-35.75,83.35-56.62,133.5-58.77c2.91-0.12,5.86-0.19,8.76-0.19h0
			c13.51,0,27.04,1.36,40.21,4.05c4.59,0.94,8.29,3.98,10.15,8.34c1.9,4.48,1.51,9.39-1.09,13.49c-2.64,4.15-7.25,6.74-12.04,6.74
			c-0.91,0-1.82-0.09-2.71-0.27c-11.31-2.3-22.92-3.47-34.52-3.47c-48.04,0-94.35,20.29-127.05,55.68
			c-33.14,35.86-49.27,82.48-45.43,131.29c6.68,84.68,75.65,152.91,160.44,158.69c4,0.27,8.05,0.41,12.04,0.41
			c11.45,0,22.91-1.13,34.06-3.37c0.95-0.19,1.91-0.29,2.87-0.29c4.71,0,8.96,2.29,11.39,6.13l1.3,2.06
			C592.08,720.96,592.45,725.42,590.72,729.48z"/>
		<path class="st1" d="M623.75,678.33l-65.92-104.53c-3.7-5.87-11.36-7.82-17.42-4.43h0c-6.53,3.65-8.67,12.04-4.68,18.37
			l84.12,133.4l0.06-0.04l0.89,1.41c4.1,6.51,12.53,8.64,19.31,5.01c63.49-33.93,107.87-99.07,112.47-174.81l-55.6,27.47
			C686.27,621.62,659.51,656.68,623.75,678.33z"/>
		<path class="st1" d="M457.42,565.81h63.79l22.73-12.7v0l0.6-0.34h154.11l0,13.88l54.52-26.94l-54.52-26.94l0,13.88H544.59
			l0.02-0.03l-0.67-0.37v0l-22.71-12.69h-63.81c0,14.27,11.43,25.85,25.63,26.13C468.85,539.96,457.42,551.54,457.42,565.81z"/>
		<path class="st1" d="M540.52,510.05c6.05,3.38,13.69,1.45,17.4-4.4l66.26-104.4c35.58,21.69,62.19,56.68,72.84,98.02l55.57,27.46
			c-4.56-75.57-48.7-140.6-111.93-174.63c-6.78-3.65-15.21-1.54-19.33,4.96l-1.85,2.92c-0.08,0.12-0.19,0.22-0.27,0.34
			l-83.35,131.33C531.85,497.99,533.97,506.39,540.52,510.05z"/>
	</g>
</g>
<g id="Layer_2">
</g>
</svg>
